# File created by Blade
# Date/Time:  Tue Apr 07 20:17:56 2015
# Frame Rate: 120.000 fps
#------------------------------------------------------
:FULLY-SPECIFIED
:DEGREES
1257
root 6.117086 32.534962 -11.382171 -7.022620 -27.577072 -17.456171
Spine 18.328901 10.248244 0.121223
Head 2.799518 3.367265 11.445477
LeftShoulder -28.476992 44.557824 10.128100
LeftArm 55.016354 -52.262759 -94.617687
LeftForeArm -2.491576 -0.000000 8.206363
LeftHand 15.187649 -0.000000 13.914070
LeftHandThumb1 -26.253704 0.000000 33.147579
RightShoulder -4.330167 10.304697 -37.885449
RightArm 8.805010 4.789419 58.149120
RightForeArm 55.310711 -0.000000 55.384678
RightHand -0.116247 0.000000 13.750350
RightHandThumb1 -24.326973 -0.000000 -32.862282
LeftUpLeg 2.614367 2.871538 11.985005
LeftLeg 26.955348 -0.000000 -0.000000
LeftFoot -23.778449 14.447541 -19.412979
LeftToeBase -7.217311 -0.000000 0.000000
RightUpLeg -148.659502 -7.092731 30.125004
RightLeg 49.560264 -0.000000 -0.000000
RightFoot 40.536348 -12.149940 8.462243
RightToeBase 36.483380 -0.000000 -0.000000
1258
root 6.130367 32.528820 -11.357308 -7.157866 -27.576709 -17.307816
Spine 18.358139 10.181742 0.067789
Head 2.770494 3.363756 11.425742
LeftShoulder -28.481512 44.634858 10.140463
LeftArm 54.937802 -52.210016 -94.558163
LeftForeArm -2.714760 -0.000000 7.692145
LeftHand 15.182098 -0.000000 13.956343
LeftHandThumb1 -26.253704 0.000000 33.147579
RightShoulder -4.379271 10.282149 -37.803297
RightArm 8.726879 4.617640 57.979155
RightForeArm 55.255076 -0.000000 55.867328
RightHand -0.146125 -0.000000 13.641516
RightHandThumb1 -24.326973 -0.000000 -32.862282
LeftUpLeg 2.670582 3.116790 11.933830
LeftLeg 27.053033 -0.000000 -0.000000
LeftFoot -23.763687 13.932818 -19.800692
LeftToeBase -7.038472 -0.000000 0.000000
RightUpLeg -148.798540 -7.132091 30.046521
RightLeg 49.812329 -0.000000 -0.000000
RightFoot 40.541068 -12.212757 8.710539
RightToeBase 36.623920 -0.000000 -0.000000
1259
root 6.145574 32.524584 -11.330809 -7.295287 -27.557621 -17.134783
Spine 18.363265 10.096361 -0.017890
Head 2.795848 3.337797 11.412153
LeftShoulder -28.499575 44.721235 10.124200
LeftArm 54.859545 -52.130426 -94.432613
LeftForeArm -2.938979 -0.000000 7.180138
LeftHand 15.272053 -0.000000 14.043045
LeftHandThumb1 -26.253704 0.000000 33.147579
RightShoulder -4.395634 10.269590 -37.758217
RightArm 8.627019 4.446444 57.850122
RightForeArm 55.153221 -0.000000 56.275766
RightHand -0.191587 -0.000000 13.502859
RightHandThumb1 -24.326973 -0.000000 -32.862282
LeftUpLeg 2.729499 3.330290 11.840212
LeftLeg 27.113137 -0.000000 -0.000000
LeftFoot -23.719227 13.480121 -20.210921
LeftToeBase -6.761371 -0.000000 0.000000
RightUpLeg -148.984342 -7.102134 30.032110
RightLeg 50.125308 -0.000000 -0.000000
RightFoot 40.555617 -12.166076 8.675421
RightToeBase 36.546682 -0.000000 -0.000000
1260
root 6.163359 32.521095 -11.305865 -7.409180 -27.532787 -16.950005
Spine 18.336551 10.022731 -0.114225
Head 2.850301 3.258310 11.391037
LeftShoulder -28.472899 44.761890 10.145930
LeftArm 54.643408 -52.007697 -94.135633
LeftForeArm -3.182209 -0.000000 6.679794
LeftHand 15.308544 -0.000000 14.119742
LeftHandThumb1 -26.253704 0.000000 33.147579
RightShoulder -4.415317 10.304149 -37.779467
RightArm 8.472608 4.267366 57.798277
RightForeArm 55.010199 -0.000000 56.610982
RightHand -0.285738 -0.000000 13.358538
RightHandThumb1 -24.326973 -0.000000 -32.862282
LeftUpLeg 2.754331 3.532851 11.726461
LeftLeg 27.173082 -0.000000 -0.000000
LeftFoot -23.664601 13.025159 -20.606765
LeftToeBase -6.744496 -0.000000 0.000000
RightUpLeg -149.234901 -6.950976 30.100952
RightLeg 50.526374 -0.000000 -0.000000
RightFoot 40.508732 -11.766415 7.955811
RightToeBase 36.479839 -0.000000 -0.000000
1261
root 6.180682 32.519089 -11.284151 -7.468655 -27.523275 -16.816335
Spine 18.277116 9.949430 -0.170872
Head 2.915812 3.202851 11.363294
LeftShoulder -28.477367 44.778449 10.143633
LeftArm 54.507378 -51.900416 -93.911880
LeftForeArm -3.344208 -0.000000 6.218477
LeftHand 15.317943 -0.000000 14.149295
LeftHandThumb1 -26.253704 0.000000 33.147579
RightShoulder -4.421939 10.316863 -37.820126
RightArm 8.367767 4.080755 57.753000
RightForeArm 54.869475 -0.000000 56.824884
RightHand -0.234156 -0.000000 13.210797
RightHandThumb1 -24.326973 -0.000000 -32.862282
LeftUpLeg 2.737807 3.679591 11.650015
LeftLeg 27.258293 -0.000000 -0.000000
LeftFoot -23.584773 12.620160 -20.970278
LeftToeBase -6.677563 -0.000000 0.000000
RightUpLeg -149.407637 -6.963863 30.138852
RightLeg 50.684216 -0.000000 -0.000000
RightFoot 40.678092 -11.651734 8.047596
RightToeBase 36.830451 -0.000000 -0.000000
1262
root 6.199741 32.518403 -11.261584 -7.522751 -27.538575 -16.700985
Spine 18.223324 9.911072 -0.198010
Head 2.984108 3.157693 11.325022
LeftShoulder -28.499448 44.824351 10.105423
LeftArm 54.481600 -51.798677 -93.797208
LeftForeArm -3.462713 -0.000000 5.835364
LeftHand 15.351486 -0.000000 14.020065
LeftHandThumb1 -26.253704 0.000000 33.147579
RightShoulder -4.453015 10.192888 -37.863126
RightArm 8.438213 3.922299 57.703775
RightForeArm 54.767736 -0.000000 56.903282
RightHand -0.233769 -0.000000 13.102245
RightHandThumb1 -24.326973 -0.000000 -32.862282
LeftUpLeg 2.702416 3.883474 11.601396
LeftLeg 27.380262 -0.000000 -0.000000
LeftFoot -23.466161 12.175103 -21.374720
LeftToeBase -6.486158 -0.000000 0.000000
RightUpLeg -149.540204 -6.934636 30.232009
RightLeg 50.850260 -0.000000 -0.000000
RightFoot 40.735167 -11.420747 8.001594
RightToeBase 36.773218 -0.000000 -0.000000
1263
root 6.217133 32.520086 -11.243451 -7.533231 -27.570289 -16.640448
Spine 18.155009 9.865501 -0.191160
Head 3.051146 3.133885 11.290415
LeftShoulder -28.510000 44.816713 10.091637
LeftArm 54.396968 -51.736267 -93.683604
LeftForeArm -3.615405 -0.000000 5.541547
LeftHand 15.360768 -0.000000 13.835104
LeftHandThumb1 -26.253704 0.000000 33.147579
RightShoulder -4.467703 10.079713 -37.886169
RightArm 8.563614 3.757330 57.631233
RightForeArm 54.699371 0.000000 56.846149
RightHand -0.220567 -0.000000 13.024979
RightHandThumb1 -24.326973 -0.000000 -32.862282
LeftUpLeg 2.638581 4.054816 11.597946
LeftLeg 27.492355 -0.000000 -0.000000
LeftFoot -23.318767 11.807010 -21.706802
LeftToeBase -6.400355 -0.000000 0.000000
RightUpLeg -149.620724 -6.932829 30.350706
RightLeg 50.914839 -0.000000 -0.000000
RightFoot 40.802597 -11.381760 8.164285
RightToeBase 36.622714 -0.000000 -0.000000
1264
root 6.236205 32.522300 -11.225466 -7.519113 -27.605130 -16.591060
Spine 18.067611 9.839844 -0.174446
Head 3.104277 3.114989 11.270279
LeftShoulder -28.510577 44.851008 10.069315
LeftArm 54.422254 -51.694776 -93.712225
LeftForeArm -3.765503 0.000000 5.345649
LeftHand 15.392552 0.000000 13.680690
LeftHandThumb1 -26.253704 0.000000 33.147579
RightShoulder -4.505999 9.946876 -37.889180
RightArm 8.733267 3.570967 57.520141
RightForeArm 54.678570 -0.000000 56.693838
RightHand -0.202990 -0.000000 12.977926
RightHandThumb1 -24.326973 -0.000000 -32.862282
LeftUpLeg 2.555083 4.212266 11.591216
LeftLeg 27.603364 -0.000000 -0.000000
LeftFoot -23.201741 11.445638 -22.042389
LeftToeBase -6.284116 -0.000000 0.000000
RightUpLeg -149.690399 -6.954581 30.470085
RightLeg 50.929928 -0.000000 -0.000000
RightFoot 40.822887 -11.311124 8.212871
RightToeBase 36.688326 -0.000000 -0.000000
1265
root 6.255836 32.525342 -11.210346 -7.506625 -27.690608 -16.554326
Spine 18.001735 9.852983 -0.139645
Head 3.137847 3.120918 11.229649
LeftShoulder -28.508916 44.867483 10.047521
LeftArm 54.510663 -51.680340 -93.810190
LeftForeArm -3.879887 -0.000000 5.154720
LeftHand 15.437350 -0.000000 13.589552
LeftHandThumb1 -26.253704 0.000000 33.147579
RightShoulder -4.520185 9.807837 -37.864840
RightArm 8.925197 3.383619 57.340805
RightForeArm 54.711978 0.000000 56.491307
RightHand -0.184196 -0.000000 12.994808
RightHandThumb1 -24.326973 -0.000000 -32.862282
LeftUpLeg 2.502654 4.406143 11.601792
LeftLeg 27.697709 -0.000000 -0.000000
LeftFoot -23.094283 11.113684 -22.359763
LeftToeBase -6.210437 -0.000000 0.000000
RightUpLeg -149.674519 -6.990428 30.556682
RightLeg 50.825900 -0.000000 -0.000000
RightFoot 40.945418 -11.533653 8.478489
RightToeBase 36.807995 -0.000000 -0.000000
